<svg width="24.000000" height="24.000000" viewBox="0 0 24 24" fill="none" xmlns="http://www.w3.org/2000/svg" xmlns:xlink="http://www.w3.org/1999/xlink">
	<desc>
			Created with Pixso.
	</desc>
	<defs/>
	<path id="Vector" d="M13 11.9L7 11.9C6.58997 11.9 6.25 11.56 6.25 11.15C6.25 10.7401 6.58997 10.4 7 10.4L13 10.4C13.41 10.4 13.75 10.7401 13.75 11.15C13.75 11.56 13.41 11.9 13 11.9Z" fill="#FFFFFF" fill-opacity="1.000000" fill-rule="nonzero"/>
	<path id="Vector" d="M2 11.9001C1.58997 11.9001 1.25 11.5601 1.25 11.1501L1.25 6.53009C1.25 4.08008 3.23999 2.09009 5.68994 2.09009L11.3101 2.09009C13.88 2.09009 15.75 3.80011 15.75 6.15009C15.75 6.56006 15.41 6.90009 15 6.90009C14.59 6.90009 14.25 6.56006 14.25 6.15009C14.25 4.39008 12.72 3.59009 11.3101 3.59009L5.68994 3.59009C4.06995 3.59009 2.75 4.9101 2.75 6.53009L2.75 11.1501C2.75 11.5701 2.41003 11.9001 2 11.9001Z" fill="#FFFFFF" fill-opacity="1.000000" fill-rule="nonzero"/>
	<path id="Vector" d="M16 21.9L6 21.9C3.38 21.9 1.25 19.77 1.25 17.15L1.25 10.15C1.25 7.53003 3.38 5.40002 6 5.40002L16 5.40002C18.62 5.40002 20.75 7.53003 20.75 10.15L20.75 11.6C20.75 12.0099 20.41 12.35 20 12.35L18.9199 12.35C18.5699 12.35 18.25 12.48 18.02 12.72L18.01 12.73C17.6801 13.06 17.5499 13.52 17.6699 13.97C17.8199 14.53 18.41 14.94 19.0701 14.94L20 14.94C20.41 14.94 20.75 15.28 20.75 15.69L20.75 17.14C20.75 19.77 18.62 21.9 16 21.9ZM6 6.90002C4.20996 6.90002 2.75 8.36005 2.75 10.15L2.75 17.15C2.75 18.94 4.20996 20.4 6 20.4L16 20.4C17.79 20.4 19.25 18.94 19.25 17.15L19.25 16.45L19.0701 16.45C17.72 16.45 16.5499 15.6 16.22 14.37C15.96 13.4 16.24 12.37 16.95 11.67C17.47 11.14 18.1699 10.85 18.9199 10.85L19.25 10.85L19.25 10.15C19.25 8.36005 17.79 6.90002 16 6.90002L6 6.90002Z" fill="#FFFFFF" fill-opacity="1.000000" fill-rule="nonzero"/>
	<path id="Vector" d="M20.9698 16.45L19.0399 16.45C17.5299 16.45 16.2499 15.33 16.1299 13.89C16.0499 13.06 16.35 12.25 16.95 11.66C17.45 11.14 18.1599 10.85 18.9099 10.85L20.96 10.85C21.9399 10.85 22.7399 11.64 22.7399 12.62L22.7399 14.68C22.7499 15.66 21.9498 16.45 20.9698 16.45ZM18.9199 12.35C18.5699 12.35 18.2499 12.48 18.0199 12.72C17.73 13 17.59 13.38 17.6299 13.76C17.6799 14.42 18.3199 14.95 19.0399 14.95L20.9698 14.95C21.1199 14.95 21.2499 14.83 21.2499 14.68L21.2499 12.62C21.2499 12.47 21.1199 12.35 20.9698 12.35L18.9199 12.35Z" fill="#FFFFFF" fill-opacity="1.000000" fill-rule="nonzero"/>
	<g opacity="0.000000"/>
</svg>
